<svg width="167" height="96" viewBox="0 0 167 96" fill="none" xmlns="http://www.w3.org/2000/svg">
<mask id="mask0_8_455" style="mask-type:alpha" maskUnits="userSpaceOnUse" x="0" y="0" width="166" height="96">
<path d="M16.8204 2.49367C9.49329 -2.07445 0.000476398 3.19411 0.00083896 11.8286L0.00443876 95.5L166 95.5L16.8204 2.49367Z" fill="#C4C4C4"/>
</mask>
<g mask="url(#mask0_8_455)">
<path d="M16.8204 2.49367C9.49329 -2.07445 0.000476398 3.19411 0.00083896 11.8286L0.00443876 95.5L166 95.5L16.8204 2.49367Z" fill="#C4C4C4"/>
<path d="M23.8655 16.6759C16.5452 11.9601 6.90778 17.216 6.90836 25.9239L6.91384 108.011C6.91425 114.086 11.8394 119.011 17.9146 119.01L145.319 119.002C156.292 119.001 160.5 104.697 151.275 98.7545L23.8655 16.6759Z" fill="#D69D9D"/>
</g>
</svg>
