<svg width="78" height="58" viewBox="0 0 78 58" fill="none" xmlns="http://www.w3.org/2000/svg">
<mask id="mask0_8_455" style="mask-type:alpha" maskUnits="userSpaceOnUse" x="0" y="0" width="78" height="58">
<path d="M16.9585 1.93174C9.63812 -2.78411 0.000746894 2.47185 0.00132798 11.1797L0.00370206 46.7569C0.00410746 52.832 4.9293 57.7566 11.0044 57.7562L66.2225 57.7525C77.1952 57.7518 81.4032 43.4476 72.1789 37.5052L16.9585 1.93174Z" fill="#C4C4C4"/>
</mask>
<g mask="url(#mask0_8_455)">
<path d="M16.9585 1.93174C9.63812 -2.78411 0.000746894 2.47185 0.00132798 11.1797L0.00370206 46.7569C0.00410746 52.832 4.9293 57.7566 11.0044 57.7562L66.2225 57.7525C77.1952 57.7518 81.4032 43.4476 72.1789 37.5052L16.9585 1.93174Z" fill="#C4C4C4"/>
<path d="M23.8654 15.6759C16.545 10.9601 6.90767 16.2161 6.90825 24.9239L6.91062 60.5011C6.91103 66.5762 11.8362 71.5008 17.9114 71.5004L73.1294 71.4967C84.1021 71.496 88.3102 57.1918 79.0858 51.2494L23.8654 15.6759Z" fill="#D69D9D"/>
</g>
</svg>
