<svg width="136" height="136" viewBox="0 0 136 136" fill="none" xmlns="http://www.w3.org/2000/svg">
<circle cx="68.2188" cy="68" r="40.5" fill="#DC4747"/>
<path d="M-4.33727e-07 67.8039L14.8838 59.2108L14.8838 76.3971L-4.33727e-07 67.8039Z" fill="#DC4747"/>
<path d="M135.608 67.8039L120.724 59.2108L120.724 76.3971L135.608 67.8039Z" fill="#DC4747"/>
<path d="M67.8039 0L76.3971 14.8838H59.2107L67.8039 0Z" fill="#DC4747"/>
<path d="M67.8039 135.608L76.3971 120.724L59.2107 120.724L67.8039 135.608Z" fill="#DC4747"/>
<path d="M115.748 19.8593L111.3 36.46L99.1478 24.3075L115.748 19.8593Z" fill="#DC4747"/>
<path d="M19.8593 115.749L36.46 111.3L24.3074 99.1479L19.8593 115.749Z" fill="#DC4747"/>
<path d="M115.749 115.749L99.1479 111.3L111.3 99.1478L115.749 115.749Z" fill="#DC4747"/>
<path d="M19.8593 19.8593L24.3075 36.46L36.46 24.3075L19.8593 19.8593Z" fill="#DC4747"/>
</svg>
